P2
# CREATOR: XV Version 3.10a  Rev: 08/26/21
30 30
255
255 255 255 128 126 125 131 126 125 131 128 126 130 125 126 127 127 127 127 127 127 127 127 127 127 127 127 127 127 127 127 255 255 255 255 129 131 129 129 131 129 129 130 128 129 130 127 127 127 127 127 127 127 127 127 127 127 127 127 127 131 131 255 255 255 255 253 130 129 128 129 130 129 129 130 130 130 127 127 127 127 127 127 127 127 127 127 127 127 127 125 129 129 255 255 255 255 255 128 128 130 130 130 127 129 133 127 127 127 127 127 127 127 127 127 127 127 127 127 127 127 129 129 130 130 255 255 255 255 130 130 130 131 127 133 133 133 127 127 127 127 127 127 127 127 127 127 127 127 127 127 128 131 129 131 130 255 255 253 253 254 131 131 131 129 133 127 127 127 127 127 127 127 127 127 127 127 127 127 127 128 131 131 131 131 131 128 253 253 254 254 255 131 129 130 129 128 127 127 127 127 127 127 127 127 127 127 127 127 127 128 128 131 130 131 131 128 129 131 252 255 255 255 130 130 130 127 127 127 128 127 127 127 127 127 127 127 127 127 127 126 131 128 130 131 131 131 129 129 131 255 255 255 255 130 126 127 127 128 128 129 127 129 128 127 127 127 127 127 127 123 131 131 129 129 131 129 129 129 128 128 255 255 255 255 3 3 3 127 129 129 129 129 129 128 127 127 127 127 127 129 131 128 131 129 129 129 129 128 128 128 255 255 255 253 3 3 3 2 6 129 127 129 133 127 127 127 127 127 127 127 128 131 131 131 129 130 128 128 128 6 255 255 255 255 3 3 3 3 5 6 127 133 133 133 127 127 127 127 127 127 128 127 131 129 130 130 130 124 6 6 255 255 255 255 255 3 3 5 5 7 7 128 133 128 127 127 127 127 127 129 129 129 133 129 129 130 129 129 5 6 8 255 255 255 253 3 3 3 5 3 7 127 128 127 127 127 127 127 127 127 129 133 133 133 129 129 129 4 4 8 8 8 255 255 255 255 0 3 3 3 3 3 127 127 127 127 127 127 127 128 129 129 133 130 130 129 127 3 4 1 8 2 255 255 255 255 255 0 3 2 2 3 127 127 127 127 127 127 127 126 129 129 129 130 129 128 124 1 4 5 2 4 8 255 255 255 255 255 1 2 2 3 127 127 127 127 127 127 127 128 129 129 129 129 129 129 128 4 5 5 5 8 8 8 255 255 255 255 4 1 3 3 127 127 127 127 127 127 127 129 129 129 131 129 129 131 124 3 4 5 5 5 8 2 4 255 255 255 255 4 7 3 127 127 127 127 127 127 127 126 128 131 131 131 131 131 131 4 4 4 5 4 3 4 2 254 255 255 255 255 7 7 129 127 127 127 127 127 127 128 131 131 131 129 129 131 128 126 4 5 4 3 4 4 4 8 254 255 255 255 255 129 129 129 127 127 127 127 127 126 129 131 129 129 131 131 131 128 9 5 5 2 3 4 4 4 8 5 255 255 255 255 129 127 127 127 127 127 127 127 129 129 129 129 129 131 128 127 128 9 2 5 1 4 4 4 5 5 5 255 255 255 255 127 127 127 127 127 127 128 128 128 129 129 131 131 131 128 130 128 5 5 5 3 4 4 3 5 10 127 255 255 255 255 127 128 127 128 127 127 127 128 127 127 127 131 127 130 130 131 124 124 4 5 2 2 3 131 127 128 128 254 255 255 255 128 128 129 129 127 127 127 127 127 127 127 129 129 131 131 131 130 125 123 128 127 132 131 131 128 128 130 255 255 255 255 127 129 126 127 127 127 127 127 127 127 129 129 129 131 130 130 130 130 128 132 132 132 129 129 131 130 130 255 255 255 255 253 129 127 127 127 127 127 127 127 127 129 129 131 130 130 130 130 130 128 132 131 129 131 131 131 128 128 253 255 255 255 124 127 127 127 127 127 127 127 128 129 131 131 131 128 131 130 128 130 131 131 131 129 131 129 130 128 132 129 255 255 255 127 127 127 127 127 127 127 127 126 129 121 126 127 131 125 126 130 127 124 131 126 129 127 130 126 132 126 123 127 255 