P2
# CREATOR: XV Version 3.10a  Rev: 08/26/21
30 30
255
255 255 255 128 126 125 131 126 125 131 128 126 130 125 126 127 127 127 127 127 127 127 127 127 127 127 127 127 127 127 127 127 122 126 125 126 125 125 126 122 126 128 123 126 125 125 127 127 127 127 127 127 127 127 127 127 127 127 127 127 131 122 126 125 126 125 124 125 122 125 122 123 127 123 123 127 123 127 127 127 127 127 127 127 127 127 127 127 127 127 125 123 122 123 121 130 121 124 125 124 126 123 124 123 126 123 127 127 127 127 127 127 127 127 127 127 127 127 127 127 127 125 123 125 123 121 124 124 124 125 124 124 123 124 122 126 122 127 127 127 127 127 127 127 127 127 127 127 127 127 127 123 121 123 121 128 121 127 126 124 126 123 125 123 125 122 127 127 127 127 127 127 127 127 127 127 127 127 127 127 128 126 123 121 123 124 127 124 127 129 124 128 123 125 122 126 122 127 127 127 127 127 127 127 127 127 127 127 127 127 128 125 121 124 121 124 125 124 127 126 127 126 0 4 0 2 0 2 0 126 124 126 124 127 126 127 127 127 127 127 126 122 125 122 123 126 123 125 125 125 125 126 123 0 0 0 0 0 0 0 0 124 127 126 127 127 127 127 127 127 123 126 122 124 124 123 127 124 125 4 0 4 0 3 0 0 0 0 0 0 0 6 124 126 125 127 127 127 127 127 129 122 128 122 123 126 123 122 6 0 0 0 0 0 0 0 0 0 0 0 0 4 3 122 127 127 127 127 127 127 127 125 124 125 124 123 124 5 0 4 0 0 0 3 0 0 0 0 0 0 0 0 7 2 125 127 127 127 127 127 127 125 124 126 123 124 123 1 0 0 0 0 0 0 0 0 0 0 0 0 0 0 0 0 127 127 127 127 127 127 129 125 125 122 127 122 0 0 0 0 0 0 0 2 0 0 0 0 0 0 0 0 0 2 0 127 127 127 127 127 127 125 124 126 122 124 3 0 0 1 0 0 0 0 0 3 0 0 0 0 0 0 0 0 3 127 127 127 127 127 128 126 125 122 127 122 0 0 0 0 0 0 0 0 0 0 0 0 0 0 0 0 0 2 0 127 127 127 127 127 126 126 124 126 124 127 2 0 0 0 0 1 0 0 0 0 0 0 0 0 0 0 0 0 1 127 127 127 127 127 128 126 124 124 126 124 0 0 0 0 0 0 0 0 0 0 2 0 1 0 0 0 0 1 0 127 127 127 127 127 129 123 124 123 124 126 0 0 0 0 0 2 0 0 0 0 0 1 0 0 0 0 0 0 1 127 127 127 127 127 126 128 122 128 122 124 0 0 0 0 0 0 0 0 0 0 0 0 4 0 0 0 0 1 0 127 127 127 127 127 128 123 126 122 125 126 0 0 0 0 0 2 0 0 0 0 0 0 0 0 0 0 1 0 2 127 127 127 127 127 126 125 122 125 122 124 124 4 0 0 0 0 1 0 0 0 0 0 0 0 0 0 0 1 125 127 127 127 127 127 127 125 125 125 125 124 125 0 4 0 0 1 0 1 0 0 0 0 0 0 0 1 126 1 126 127 127 127 127 127 128 125 127 125 124 125 124 126 9 0 1 0 0 0 0 0 0 0 0 0 0 0 125 127 125 127 126 127 126 127 127 127 125 127 125 127 125 127 124 1 2 1 0 0 0 0 0 0 0 0 0 10 125 127 125 127 127 125 126 129 127 127 127 127 127 127 127 126 126 124 3 4 0 0 0 0 1 0 0 0 0 125 125 125 127 126 124 127 124 126 127 127 127 127 127 127 127 122 124 122 123 123 3 5 0 1 0 1 0 126 125 123 125 123 125 125 127 124 124 129 127 127 127 127 127 127 127 127 122 128 123 128 124 123 125 123 124 122 124 122 124 126 123 126 125 126 124 128 124 124 127 127 127 127 127 127 127 122 127 121 126 121 126 125 126 124 126 124 127 124 126 123 127 123 127 125 123 125 123 255 127 127 127 127 127 127 127 127 126 129 121 126 127 131 125 126 130 127 124 131 126 129 127 130 126 132 126 123 127 255 