P2
# CREATOR: XV Version 3.10a  Rev: 08/26/21
30 30
255
255 255 128 126 125 125 126 125 125 128 126 126 125 125 126 127 127 127 127 127 127 127 127 127 127 127 127 127 127 127 127 127 255 129 128 125 125 125 122 122 127 123 123 128 125 125 127 127 127 127 127 127 127 127 127 127 127 127 127 127 122 122 127 253 126 126 129 127 127 127 128 129 126 126 129 127 127 127 127 127 127 127 127 127 127 127 127 127 127 127 125 128 126 125 125 253 124 124 125 126 126 124 124 127 123 123 127 127 127 127 127 127 127 127 127 127 127 127 127 127 127 123 123 129 121 121 255 128 126 124 124 123 123 126 126 127 127 127 127 127 127 127 127 127 127 127 127 127 127 127 127 127 123 123 126 124 124 253 130 130 124 124 127 126 122 122 127 127 127 127 127 127 127 127 127 127 127 127 127 127 126 126 121 121 125 125 127 127 127 251 129 127 125 125 128 127 127 127 127 127 127 127 127 127 127 127 127 127 127 127 125 125 128 126 126 127 127 127 129 131 252 128 123 123 126 126 127 127 127 127 127 127 127 127 127 127 127 127 127 127 126 128 128 124 124 124 124 127 127 126 126 255 0 0 2 2 0 0 127 126 124 124 126 126 127 127 127 127 127 127 123 122 122 129 123 123 129 125 125 125 126 128 255 1 0 0 0 0 0 0 127 127 128 127 127 127 127 127 127 127 126 126 124 124 126 125 125 127 128 4 0 0 253 3 3 2 1 0 0 0 6 126 125 125 127 127 127 127 127 127 127 127 127 128 123 123 126 122 6 0 0 0 255 0 0 0 0 2 1 1 3 3 122 127 127 127 127 127 127 127 125 125 125 125 125 129 124 5 0 0 4 4 252 252 1 0 0 0 0 0 0 2 2 127 127 127 127 127 127 127 127 126 124 124 128 124 124 1 0 0 0 0 0 252 2 2 0 0 3 0 0 0 0 127 127 127 127 127 127 127 125 125 129 122 122 127 0 0 0 0 0 2 0 0 253 0 0 0 0 2 2 2 0 0 127 127 127 127 127 127 127 126 125 125 124 124 3 1 0 0 0 0 0 0 255 255 0 0 0 0 0 1 1 3 127 127 127 127 127 127 126 126 126 127 127 124 0 0 0 0 0 0 0 1 3 255 255 0 0 0 0 2 0 0 127 127 127 127 127 127 126 126 124 124 127 128 2 1 1 4 0 0 4 0 0 0 255 1 0 0 0 0 1 1 127 127 127 127 127 127 124 124 127 127 126 124 0 0 0 0 0 4 0 0 0 2 4 0 0 0 0 0 0 0 127 127 127 127 127 127 126 123 123 127 125 125 0 0 3 2 0 0 2 0 0 1 1 254 255 0 0 0 0 2 127 127 127 127 127 127 126 126 122 122 128 124 124 4 0 0 2 0 0 3 0 0 0 0 0 255 0 0 1 127 127 127 127 127 127 127 126 125 125 126 126 126 128 0 0 4 1 1 0 0 0 0 0 0 0 0 255 1 1 126 127 127 127 127 127 127 127 125 125 129 124 124 124 124 9 0 0 1 1 0 0 4 0 0 0 0 0 254 125 125 127 127 127 127 127 127 125 125 126 126 125 125 127 127 127 1 1 2 0 0 2 0 0 1 0 0 10 127 253 127 127 127 127 127 127 127 127 127 127 127 127 127 127 126 126 124 3 3 0 0 0 0 0 0 0 0 126 127 127 254 127 127 126 126 128 129 127 127 127 127 127 127 127 127 124 124 123 123 3 3 0 0 0 0 127 127 125 125 125 125 255 127 127 125 125 126 127 127 127 127 127 127 127 127 126 126 128 128 125 123 123 127 127 122 122 126 125 125 128 126 126 253 124 124 129 129 127 127 127 127 127 127 127 122 122 123 123 125 125 127 126 124 124 126 126 129 129 123 123 127 127 125 125 253 124 124 127 127 127 127 127 127 127 127 128 129 124 124 126 126 126 126 124 124 124 124 124 124 125 125 126 126 128 129 251 255 127 127 127 127 127 127 127 126 126 121 121 126 127 125 125 126 127 124 124 126 126 127 127 126 126 126 123 123 127 255 